<svg xmlns="http://www.w3.org/2000/svg" version="1.1" xmlns:xlink="http://www.w3.org/1999/xlink" xmlns:svgjs="http://svgjs.dev/svgjs" width="1000" height="1000" viewBox="0 0 1000 1000"><rect width="1000" height="1000" fill="#000000"></rect><g transform="matrix(0.7,0,0,0.7,149.57575757575756,375.0087306025865)"><svg viewBox="0 0 396 142" data-background-color="#ffffff" preserveAspectRatio="xMidYMid meet" height="358" width="1000" xmlns="http://www.w3.org/2000/svg" xmlns:xlink="http://www.w3.org/1999/xlink"><g id="tight-bounds" transform="matrix(1,0,0,1,0.2400000000000091,-0.17493912836107484)"><svg viewBox="0 0 395.52 142.34987825672218" height="142.34987825672218" width="395.52"><g><svg viewBox="0 0 679.1540160845525 244.43135999999998" height="142.34987825672218" width="395.52"><g transform="matrix(1,0,0,1,0,2.6165201733412857)"><svg viewBox="0 0 395.52 239.1983196533174" height="239.1983196533174" width="395.52"><g id="textblocktransform"><svg viewBox="0 0 395.52 239.1983196533174" height="239.1983196533174" width="395.52" id="textblock"><g><svg viewBox="0 0 395.52 166.05947273146168" height="166.05947273146168" width="395.52"><g transform="matrix(1,0,0,1,0,0)"><svg width="395.52" viewBox="0.75 -39.04999923706055 93.00731658935547 39.04999923706055" height="166.05947273146168" data-palette-color="#61777f"><path d="M16.35 0L16.35 0Q15.55 0 14.98-0.58 14.4-1.15 14.4-1.95L14.4-1.95 14.4-39.05 18.3-39.05 18.3-1.95Q18.3-1.15 17.75-0.58 17.2 0 16.35 0ZM30.2-35.5L2.55-35.5Q1.75-35.5 1.25-36 0.75-36.5 0.75-37.25L0.75-37.25Q0.75-38.05 1.25-38.55 1.75-39.05 2.55-39.05L2.55-39.05 30.2-39.05Q31-39.05 31.5-38.55 32-38.05 32-37.25L32-37.25Q32-36.5 31.5-36 31-35.5 30.2-35.5L30.2-35.5ZM31.6 0L31.6 0Q30.45 0 29.95-0.95 29.45-1.9 29.85-2.8L29.85-2.8 44.55-37.7Q45.1-39.05 46.45-39.05L46.45-39.05Q47.75-39.05 48.3-37.7L48.3-37.7 63.05-2.75Q63.5-1.8 62.92-0.9 62.35 0 61.3 0L61.3 0Q60.7 0 60.22-0.3 59.75-0.6 59.45-1.2L59.45-1.2 45.7-34.55 47.25-34.55 33.4-1.2Q33.15-0.6 32.67-0.3 32.2 0 31.6 0ZM58.2-9.3L34.9-9.3 36.4-12.65 56.7-12.65 58.2-9.3ZM70.84 0L70.84 0Q69.99 0 69.44-0.55 68.89-1.1 68.89-1.95L68.89-1.95 68.89-37.1Q68.89-37.95 69.44-38.5 69.99-39.05 70.84-39.05L70.84-39.05 80.19-39.05Q83.84-39.05 86.69-37.52 89.55-36 91.17-33.27 92.8-30.55 92.8-27L92.8-27Q92.8-23.6 91.17-20.95 89.55-18.3 86.69-16.8 83.84-15.3 80.19-15.3L80.19-15.3 72.8-15.3 72.8-1.95Q72.8-1.1 72.24-0.55 71.69 0 70.84 0ZM91.75 0L91.75 0Q91.09 0 90.72-0.25 90.34-0.5 90.05-1L90.05-1 80.44-16.3 84.34-17.3 93.3-3Q94.05-1.8 93.57-0.9 93.09 0 91.75 0ZM72.8-35.3L72.8-19.05 80.19-19.05Q82.75-19.05 84.72-20.08 86.69-21.1 87.84-22.9 89-24.7 89-27L89-27Q89-29.45 87.84-31.33 86.69-33.2 84.72-34.25 82.75-35.3 80.19-35.3L80.19-35.3 72.8-35.3Z" opacity="1" transform="matrix(1,0,0,1,0,0)" fill="#ffffff" class="undefined-text-0" data-fill-palette-color="primary" id="text-0"></path></svg></g></svg></g><g transform="matrix(1,0,0,1,163.310208,205.26212881601424)"><svg viewBox="0 0 232.209792 33.93619083730319" height="33.93619083730319" width="232.209792"><g transform="matrix(1,0,0,1,0,0)"><svg width="232.209792" viewBox="1.100000023841858 -35.5 247.67999267578125 36.20000076293945" height="33.93619083730319" data-palette-color="#61777f"><path d="M14 0L1.1 0 1.1-0.95 1.85-1.15Q3.85-1.7 3.9-3.6L3.9-3.6Q3.9-5.35 3.93-7.08 3.95-8.8 3.95-10.5L3.95-10.5 3.95-22.45 1.1-22.45 1.1-23.55 2.2-23.75Q3.2-23.9 3.65-24.48 4.1-25.05 4.3-26.1L4.3-26.1Q4.85-28.1 5.78-29.58 6.7-31.05 8-32.3L8-32.3Q9.85-34.1 11.95-34.8 14.05-35.5 16.05-35.5L16.05-35.5Q18-35.5 19.63-34.73 21.25-33.95 21.25-32.1L21.25-32.1Q21.25-30.8 20.48-30.03 19.7-29.25 18.25-29.25L18.25-29.25Q15.95-29.25 14.2-31.95L14.2-31.95 13.6-32.65Q13-33.4 12.4-33.25 11.8-33.1 11.55-32.25L11.55-32.25Q11.15-30.65 10.93-28.5 10.7-26.35 10.65-24L10.65-24 16.4-24 16.4-22.45 10.65-22.45 10.65-10.5Q10.65-8.8 10.68-7.13 10.7-5.45 10.7-3.75L10.7-3.75Q10.7-1.75 12.7-1.3L12.7-1.3 14-0.95 14 0ZM30.6 0L18.1 0 18.1-0.95 18.85-1.2Q19.85-1.45 20.22-2.05 20.6-2.65 20.6-3.65L20.6-3.65 20.6-18.3Q20.55-19.4 20.2-19.98 19.85-20.55 18.85-20.75L18.85-20.75 18.1-20.95 18.1-21.85 26.25-24.75 26.85-24.2 27.3-19.8 27.3-19.45Q28.05-20.85 29.2-22.05 30.35-23.25 31.7-24 33.05-24.75 34.4-24.75L34.4-24.75Q36.3-24.75 37.25-23.75 38.2-22.75 38.2-21.2L38.2-21.2Q38.2-19.5 37.25-18.63 36.3-17.75 34.95-17.75L34.95-17.75Q32.95-17.75 31.5-19.55L31.5-19.55 31.4-19.65Q30.9-20.25 30.27-20.33 29.65-20.4 29.05-19.7L29.05-19.7Q28.55-19.2 28.12-18.53 27.7-17.85 27.35-16.95L27.35-16.95 27.35-3.85Q27.35-2.9 27.75-2.27 28.15-1.65 29.1-1.4L29.1-1.4 30.6-0.95 30.6 0ZM47.09 0.7L47.09 0.7Q44.25 0.7 42.27-0.93 40.3-2.55 40.3-5.6L40.3-5.6Q40.3-8 42.62-10.03 44.95-12.05 49.95-13L49.95-13Q50.8-13.2 51.92-13.38 53.05-13.55 54.15-13.75L54.15-13.75 54.15-17.3Q54.15-20.7 53.3-22 52.45-23.3 50.59-23.3L50.59-23.3 50.45-23.3Q49.3-23.3 48.62-22.58 47.95-21.85 47.75-20.2L47.75-20.2 47.59-19.55Q47.45-17.55 46.55-16.63 45.65-15.7 44.3-15.7L44.3-15.7Q43.05-15.7 42.22-16.48 41.4-17.25 41.4-18.5L41.4-18.5Q41.4-20.55 42.8-21.95 44.2-23.35 46.52-24.05 48.84-24.75 51.55-24.75L51.55-24.75Q56-24.75 58.34-22.6 60.7-20.45 60.7-15.6L60.7-15.6 60.7-4.45Q60.7-2.3 62.75-2.3L62.75-2.3 63.9-2.3 64.4-1.75Q63.5-0.6 62.4 0.03 61.3 0.65 59.4 0.65L59.4 0.65Q57.25 0.65 55.97-0.38 54.7-1.4 54.3-3.1L54.3-3.1Q52.7-1.4 51.15-0.35 49.59 0.7 47.09 0.7ZM50-2.5L50-2.5Q51-2.5 51.9-2.95 52.8-3.4 54.15-4.45L54.15-4.45 54.15-12.45Q52.84-12.25 51.5-11.95L51.5-11.95Q49.34-11.45 48.02-10.1 46.7-8.75 46.7-6.45L46.7-6.45Q46.7-4.45 47.62-3.48 48.55-2.5 50-2.5ZM76.99 0L65.54 0 65.54-1 66.64-1.3Q67.44-1.55 67.69-2.02 67.94-2.5 67.99-3.3L67.99-3.3 67.99-13.2Q67.99-14.85 67.99-16 67.99-17.15 67.94-18.7L67.94-18.7Q67.94-19.55 67.69-20.03 67.44-20.5 66.59-20.7L66.59-20.7 65.54-20.95 65.54-21.85 73.64-24.75 74.24-24.2 74.59-20.85Q76.34-22.45 78.49-23.6 80.64-24.75 82.89-24.75L82.89-24.75Q85.39-24.75 86.79-23.75 88.19-22.75 88.94-20.7L88.94-20.7Q90.84-22.6 93.14-23.68 95.44-24.75 97.69-24.75L97.69-24.75Q101.09-24.75 102.79-23.05 104.49-21.35 104.49-17.7L104.49-17.7 104.49-3.25Q104.49-1.65 105.89-1.25L105.89-1.25 106.84-1 106.84 0 95.59 0 95.59-1 96.49-1.25Q97.84-1.7 97.84-3.3L97.84-3.3 97.84-17.95Q97.84-20.1 97.07-20.88 96.29-21.65 94.54-21.65L94.54-21.65Q93.19-21.65 91.99-21.1 90.79-20.55 89.34-19.4L89.34-19.4Q89.64-17.9 89.64-15.95L89.64-15.95 89.64-3.25Q89.69-2.4 89.97-1.93 90.24-1.45 91.04-1.25L91.04-1.25 91.89-1 91.89 0 80.59 0 80.59-1 81.64-1.3Q82.44-1.55 82.72-2.02 82.99-2.5 82.99-3.3L82.99-3.3 82.99-17.9Q82.99-19.95 82.24-20.8 81.49-21.65 79.69-21.65L79.69-21.65Q77.39-21.65 74.74-19.45L74.74-19.45 74.74-3.25Q74.74-1.6 76.14-1.25L76.14-1.25 76.99-1 76.99 0ZM121.39-24.75L121.39-24.75Q124.54-24.75 126.79-23.45 129.04-22.15 130.27-19.88 131.49-17.6 131.49-14.65L131.49-14.65Q131.49-14 131.44-13.43 131.39-12.85 131.24-12.35L131.24-12.35 116.19-12.35Q116.24-7.2 118.12-4.95 119.99-2.7 123.59-2.7L123.59-2.7Q126.09-2.7 127.64-3.53 129.19-4.35 130.49-5.85L130.49-5.85 131.29-5.1Q129.79-2.35 127.22-0.83 124.64 0.7 121.09 0.7L121.09 0.7Q117.54 0.7 114.84-0.8 112.14-2.3 110.62-5.13 109.09-7.95 109.09-11.9L109.09-11.9Q109.09-16 110.87-18.85 112.64-21.7 115.47-23.23 118.29-24.75 121.39-24.75ZM121.14-23.3L121.14-23.3Q119.69-23.3 118.62-22.48 117.54-21.65 116.92-19.58 116.29-17.5 116.19-13.75L116.19-13.75 125.14-13.75Q125.69-18.8 124.74-21.05 123.79-23.3 121.14-23.3ZM147.04 0.15L144.24 0.15 136.59-20.65Q136.29-21.55 135.76-22.03 135.24-22.5 134.39-22.8L134.39-22.8 133.54-23.05 133.54-24 145.49-24 145.49-23.05 144.69-22.85Q142.79-22.35 143.44-20.45L143.44-20.45 147.99-6.85 152.19-18 151.44-20.25Q151.09-21.3 150.71-21.9 150.34-22.5 149.64-22.75L149.64-22.75 148.79-23.05 148.79-24 159.09-24 159.09-23.05 158.39-22.8Q157.59-22.5 157.41-21.98 157.24-21.45 157.59-20.45L157.59-20.45 162.04-7.15 166.54-20.4Q167.14-22.35 165.64-22.75L165.64-22.75 164.64-23.05 164.64-24 171.34-24 171.34-23.05 170.24-22.75Q169.39-22.5 168.94-22 168.49-21.5 168.19-20.6L168.19-20.6 160.99 0.15 158.39 0.15 152.94-15.8 147.04 0.15ZM185.54 0.7L185.54 0.7Q181.84 0.7 179.06-0.85 176.29-2.4 174.76-5.25 173.24-8.1 173.24-12.05L173.24-12.05Q173.24-16 174.86-18.85 176.49-21.7 179.26-23.23 182.04-24.75 185.54-24.75L185.54-24.75Q189.04-24.75 191.81-23.23 194.59-21.7 196.21-18.88 197.84-16.05 197.84-12.05L197.84-12.05Q197.84-8.1 196.31-5.23 194.79-2.35 192.04-0.83 189.29 0.7 185.54 0.7ZM185.54-0.7L185.54-0.7Q187.34-0.7 188.46-1.68 189.59-2.65 190.09-5.1 190.59-7.55 190.59-11.95L190.59-11.95Q190.59-16.4 190.09-18.88 189.59-21.35 188.46-22.33 187.34-23.3 185.54-23.3L185.54-23.3Q183.74-23.3 182.64-22.33 181.54-21.35 181.01-18.88 180.49-16.4 180.49-11.95L180.49-11.95Q180.49-7.55 181.01-5.1 181.54-2.65 182.64-1.68 183.74-0.7 185.54-0.7ZM212.63 0L200.13 0 200.13-0.95 200.88-1.2Q201.88-1.45 202.26-2.05 202.63-2.65 202.63-3.65L202.63-3.65 202.63-18.3Q202.58-19.4 202.23-19.98 201.88-20.55 200.88-20.75L200.88-20.75 200.13-20.95 200.13-21.85 208.28-24.75 208.88-24.2 209.33-19.8 209.33-19.45Q210.08-20.85 211.23-22.05 212.38-23.25 213.73-24 215.08-24.75 216.43-24.75L216.43-24.75Q218.33-24.75 219.28-23.75 220.23-22.75 220.23-21.2L220.23-21.2Q220.23-19.5 219.28-18.63 218.33-17.75 216.98-17.75L216.98-17.75Q214.98-17.75 213.53-19.55L213.53-19.55 213.43-19.65Q212.93-20.25 212.31-20.33 211.68-20.4 211.08-19.7L211.08-19.7Q210.58-19.2 210.16-18.53 209.73-17.85 209.38-16.95L209.38-16.95 209.38-3.85Q209.38-2.9 209.78-2.27 210.18-1.65 211.13-1.4L211.13-1.4 212.63-0.95 212.63 0ZM233.58 0L221.98 0 221.98-0.95 222.73-1.2Q224.43-1.7 224.43-3.65L224.43-3.65 224.43-29.55Q224.43-30.55 224.03-31.08 223.63-31.6 222.63-31.85L222.63-31.85 221.98-32.05 221.98-33 230.73-35.1 231.38-34.65 231.18-27.6 231.18-3.65Q231.18-1.65 232.88-1.15L232.88-1.15 233.58-0.95 233.58 0ZM248.78 0L240.28 0 231.23-12.5 240.08-20.7Q240.73-21.25 240.83-21.93 240.93-22.6 239.98-22.85L239.98-22.85 239.18-23.05 239.18-24 246.98-24 246.98-23.05 245.53-22.7Q244.43-22.4 243.73-21.88 243.03-21.35 242.08-20.5L242.08-20.5 236.58-15.35 245.08-3.7Q245.88-2.65 246.53-2.08 247.18-1.5 248.28-1.1L248.28-1.1 248.78-0.95 248.78 0Z" opacity="1" transform="matrix(1,0,0,1,0,0)" fill="#ffffff" class="undefined-text-1" data-fill-palette-color="secondary" id="text-1"></path></svg></g></svg></g></svg></g></svg></g><g transform="matrix(1,0,0,1,434.7226560845525,0)"><svg viewBox="0 0 244.43135999999998 244.43135999999998" height="244.43135999999998" width="244.43135999999998"><g data-palette-color="#61777f"><rect width="66.8112384" height="244.43135999999998" fill="#ffffff" stroke="transparent" data-fill-palette-color="accent" x="0" fill-opacity="1"></rect><rect width="66.8112384" height="244.43135999999998" fill="#ffffff" stroke="transparent" data-fill-palette-color="accent" x="81.47711999999999" fill-opacity="0.75"></rect><rect width="66.8112384" height="244.43135999999998" fill="#ffffff" stroke="transparent" data-fill-palette-color="accent" x="162.95423999999997" fill-opacity="0.5"></rect></g></svg></g></svg></g><defs></defs></svg><rect width="395.52" height="142.34987825672218" fill="none" stroke="none" visibility="hidden"></rect></g></svg></g></svg>